<svg viewBox="0 0 24 24" xml:space="preserve" xmlns="http://www.w3.org/2000/svg"><path d="M12 5c-3.9 0-7 3.1-7 7s3.1 7 7 7 7-3.1 7-7-3.1-7-7-7zm0 12c-2.8 0-5-2.2-5-5s2.2-5 5-5 5 2.2 5 5-2.2 5-5 5zM4 12c0-.3 0-.7.1-1H1c-.6 0-1 .4-1 1s.4 1 1 1h3.1c-.1-.3-.1-.7-.1-1zM5.7 7.1c.2-.3.4-.5.7-.8s.5-.5.8-.7L4.9 3.5c-.4-.4-1-.4-1.4 0-.4.4-.4 1 0 1.4l2.2 2.2zM13 4.1V1c0-.6-.4-1-1-1s-1 .4-1 1v3.1c.3-.1.7-.1 1-.1.3 0 1 0 1 .1zM18.3 7.1l2.2-2.2c.4-.4.4-1 0-1.4-.4-.4-1-.4-1.4 0l-2.2 2.2c.3.2.5.4.8.7.2.2.6.7.6.7zM23 11h-3.1c0 .3.1.7.1 1 0 .3 0 1-.1 1H23c.6 0 1-.4 1-1s-.4-1-1-1zM18.3 16.9c-.2.3-.4.5-.7.8-.2.2-.7.7-.8.7l2.2 2.2c.4.4 1 .4 1.4 0 .4-.4.4-1 0-1.4l-2.1-2.3zM11 19.9V23c0 .6.4 1 1 1s1-.4 1-1v-3.1s-.7.1-1 .1c-.3 0-1 0-1-.1zM5.7 16.9l-2.2 2.2c-.4.4-.4 1 0 1.4.4.4 1 .4 1.4 0l2.2-2.2s-.5-.4-.8-.7c-.2-.2-.6-.7-.6-.7z" fill="#f5e7f4" class="fill-000000"></path><path d="M12 8v1c1.7 0 3 1.3 3 3h1c0-2.2-1.8-4-4-4z" fill="#f5e7f4" class="fill-000000"></path></svg>